<svg width="24" height="24" viewBox="0 0 24 24" fill="none" xmlns="http://www.w3.org/2000/svg">
<path d="M22.7435 6.73394H20.4843V5.36347C20.4843 5.08827 20.2612 4.86515 19.986 4.86515H16.9459V4.34173C16.9459 4.06653 16.7228 3.84342 16.4476 3.84342H14.3848C14.1257 2.78659 13.1708 2 12.0352 2H3.41945C2.08533 2 1 3.08533 1 4.41945V10.045C1 11.3791 2.08533 12.4645 3.41945 12.4645H4.37554L3.38739 18.9007L2.99964 21.4261C2.98873 21.4971 2.9933 21.5696 3.01304 21.6387C3.03278 21.7077 3.06722 21.7717 3.114 21.8262C3.16078 21.8807 3.2188 21.9245 3.28407 21.9545C3.34935 21.9845 3.42033 22 3.49217 22H9.58812C9.86328 22 10.0864 21.7769 10.0864 21.5017V15.3531H11.1465C11.4216 15.3531 11.6448 15.1301 11.6448 14.8548V14.1207V12.3865C13.4565 12.3865 14.1737 11.482 14.3848 10.6211H16.4476C16.7227 10.6211 16.9459 10.3979 16.9459 10.1227V9.59936H19.986C20.2612 9.59936 20.4843 9.37629 20.4843 9.10105V7.73053H22.7435C23.0187 7.73053 23.2418 7.50746 23.2418 7.23221C23.2418 6.95697 23.0187 6.73394 22.7435 6.73394ZM9.08985 21.0034H4.0728L4.30756 19.4746H9.08981L9.08985 21.0034ZM9.08981 18.4781H4.46056L5.38381 12.4645H9.08977L9.08981 18.4781ZM10.6482 14.3565H10.0865V12.4644H10.6482V14.3565ZM13.458 10.045C13.458 10.0644 13.4572 10.0837 13.4565 10.103V10.1054C13.4247 10.862 12.7995 11.4679 12.0352 11.4679H3.41945C2.6349 11.4679 1.99662 10.8296 1.99662 10.045V10.0077H10.7456C11.0207 10.0077 11.2439 9.78464 11.2439 9.50939C11.2439 9.23415 11.0207 9.01108 10.7456 9.01108H1.99662V4.41945C1.99662 3.6349 2.6349 2.99662 3.41945 2.99662H12.0352C12.7995 2.99662 13.4247 3.60245 13.4565 4.35915V4.3615C13.4572 4.38079 13.458 4.40007 13.458 4.41949V10.045ZM15.9493 5.36338V9.62443H14.4547V4.84005H15.9493V5.36338ZM19.4877 8.60274H16.9459V5.86178H19.4877V8.60274Z" fill="#767676"/>
</svg>
