<svg width="24" height="24" viewBox="0 0 24 24" fill="none" xmlns="http://www.w3.org/2000/svg">
<path d="M19.0703 14.5469C18.8538 14.5469 18.643 14.5711 18.4398 14.616C18.2764 13.9013 17.6778 13.3469 16.9207 13.2627L16.1406 13.176V12.3914C16.1406 11.4943 15.4684 10.7433 14.5769 10.6443C14.5697 10.6435 14.5627 10.6429 14.5555 10.6423L11.0495 10.3826C10.0078 10.2741 9.10938 11.0932 9.10938 12.1309V12.3948L7.80688 12.2501L5.57117 4.425C5.53621 4.30256 5.46231 4.19485 5.36066 4.11816C5.25901 4.04148 5.13514 4 5.00781 4H2.58594C2.2623 4 2 4.2623 2 4.58594C2 4.90957 2.2623 5.17188 2.58594 5.17188H4.56594L6.76562 12.8712V14.6059C6.57279 14.5666 6.37649 14.5468 6.17969 14.5469C4.56426 14.5469 3.25 15.8611 3.25 17.4766C3.25 19.092 4.56426 20.4062 6.17969 20.4062C7.13609 20.4062 7.9868 19.9454 8.52188 19.2344H16.7281C17.2632 19.9454 18.1139 20.4062 19.0703 20.4062C20.6857 20.4062 22 19.092 22 17.4766C22 15.8611 20.6857 14.5469 19.0703 14.5469ZM10.2812 12.1309C10.2812 11.7782 10.5877 11.5102 10.9319 11.5485C10.9391 11.5495 10.9462 11.5501 10.9532 11.5507L14.4565 11.81C14.5981 11.8278 14.7283 11.8968 14.8226 12.0038C14.9169 12.1109 14.9689 12.2487 14.9688 12.3914V13.0459L10.2812 12.5251V12.1309ZM6.17969 19.2344C5.21043 19.2344 4.42188 18.4458 4.42188 17.4766C4.42188 16.5073 5.21047 15.7188 6.17969 15.7188C7.14895 15.7188 7.9375 16.5073 7.9375 17.4766C7.9375 18.4458 7.14891 19.2344 6.17969 19.2344ZM9.05047 18.0625C9.08973 17.8697 9.10946 17.6734 9.10938 17.4766C9.10938 16.5202 8.64855 15.6693 7.93734 15.1344C7.93734 15.1339 7.9375 15.1334 7.9375 15.1328V13.4437C8.56891 13.5139 16.4102 14.3851 16.7913 14.4274C16.9346 14.4432 17.0671 14.5114 17.1633 14.6188C17.2595 14.7263 17.3126 14.8656 17.3125 15.0098V15.1328C17.3125 15.1333 17.3127 15.1339 17.3127 15.1344C16.6014 15.6693 16.1406 16.5201 16.1406 17.4766C16.1406 17.6772 16.1609 17.8731 16.1995 18.0625H9.05047ZM19.0703 19.2344C18.1011 19.2344 17.3125 18.4458 17.3125 17.4766C17.3125 16.5073 18.1011 15.7188 19.0703 15.7188C20.0396 15.7188 20.8281 16.5073 20.8281 17.4766C20.8281 18.4458 20.0395 19.2344 19.0703 19.2344Z" fill="#767676"/>
<path d="M14.3828 15.7188H10.8672C10.5436 15.7188 10.2812 15.9811 10.2812 16.3047C10.2812 16.6283 10.5436 16.8906 10.8672 16.8906H14.3828C14.7064 16.8906 14.9688 16.6283 14.9688 16.3047C14.9688 15.9811 14.7064 15.7188 14.3828 15.7188ZM6.76562 17.4766C6.76562 17.8002 6.50332 18.0625 6.17969 18.0625C5.85605 18.0625 5.59375 17.8002 5.59375 17.4766C5.59375 17.1529 5.85605 16.8906 6.17969 16.8906C6.50332 16.8906 6.76562 17.1529 6.76562 17.4766ZM19.6562 17.4766C19.6562 17.8002 19.3939 18.0625 19.0703 18.0625C18.7467 18.0625 18.4844 17.8002 18.4844 17.4766C18.4844 17.1529 18.7467 16.8906 19.0703 16.8906C19.3939 16.8906 19.6562 17.1529 19.6562 17.4766Z" fill="#767676"/>
</svg>
